<svg width="24" height="25" viewBox="0 0 24 25" fill="none" xmlns="http://www.w3.org/2000/svg">
<path fill-rule="evenodd" clip-rule="evenodd" d="M9.5 3.68506C5.91015 3.68506 3 6.59521 3 10.1851C3 13.7749 5.91015 16.6851 9.5 16.6851C13.0899 16.6851 16 13.7749 16 10.1851C16 6.59521 13.0899 3.68506 9.5 3.68506ZM2 10.1851C2 6.04292 5.35786 2.68506 9.5 2.68506C13.6421 2.68506 17 6.04292 17 10.1851C17 12.0766 16.2998 13.8046 15.1444 15.1239L21.8518 21.8314C22.0471 22.0266 22.0471 22.3432 21.8518 22.5385C21.6566 22.7338 21.34 22.7338 21.1447 22.5385L14.4372 15.8309C13.118 16.9854 11.3907 17.6851 9.5 17.6851C5.35786 17.6851 2 14.3272 2 10.1851Z" fill="black"/>
</svg>
