<svg width="24" height="25" viewBox="0 0 24 25" fill="none" xmlns="http://www.w3.org/2000/svg">
<path d="M20.5 18.2285C15.5294 23.1991 8.47056 23.1991 3.5 18.2285C4.65708 17.0714 6.85286 15.7888 9.79177 14.6132V12.2621C9.79177 12.2621 8.61621 11.8495 8.61621 9.32317C7.44064 9.32317 7.44064 6.97204 8.61621 6.97204C8.61621 6.63347 6.64713 3.52645 9.12287 4.03312C9.71066 1.68199 15.505 1.68199 16.0928 4.03312C16.4431 5.43322 15.5661 6.72399 15.5661 6.97204C16.7053 6.97204 16.3937 9.32317 15.5756 9.32317C15.5756 11.8495 14.494 12.2621 14.494 12.2621V14.6132C17.4329 15.7888 19.0002 16.7698 20.5 18.2285Z" stroke="#111111" stroke-linecap="round" stroke-linejoin="round"/>
</svg>
